<?xml version="1.0" standalone="no"?>
<!DOCTYPE svg PUBLIC "-//W3C//DTD SVG 20010904//EN"
 "http://www.w3.org/TR/2001/REC-SVG-20010904/DTD/svg10.dtd">
<svg version="1.0" xmlns="http://www.w3.org/2000/svg"
 width="198.000000pt" height="198.000000pt" viewBox="0 0 198.000000 198.000000"
 preserveAspectRatio="xMidYMid meet">

<g transform="translate(0.000000,198.000000) scale(0.100000,-0.100000)"
fill="#000000" stroke="none">
<path d="M0 990 l0 -990 990 0 990 0 0 990 0 990 -990 0 -990 0 0 -990z m378
278 c-3 -7 -11 -13 -18 -13 -7 0 -15 6 -17 13 -3 7 4 12 17 12 13 0 20 -5 18
-12z m2 -63 c17 -20 5 -45 -20 -45 -11 0 -23 7 -26 15 -6 15 11 45 26 45 4 0
13 -7 20 -15z m240 5 c0 -5 -7 -10 -15 -10 -8 0 -15 5 -15 10 0 6 7 10 15 10
8 0 15 -4 15 -10z m199 -32 c5 -13 15 -45 22 -73 21 -87 45 -98 73 -35 21 48
47 64 92 57 19 -3 34 -2 34 3 0 5 6 7 14 4 8 -3 16 4 20 19 4 19 16 27 48 35
23 6 44 9 46 7 2 -2 -3 -24 -11 -48 l-15 -44 43 5 c43 4 44 4 53 -29 7 -29 13
-34 37 -34 23 0 30 6 39 32 14 40 17 43 60 53 35 8 36 7 29 -19 -3 -14 -10
-37 -15 -51 -10 -27 -10 -30 2 -45 4 -5 7 -33 6 -62 l-1 -52 33 31 c37 37 44
23 9 -18 -20 -23 -34 -28 -85 -32 -64 -5 -68 -2 -63 44 2 19 -38 24 -49 6 -7
-13 -9 -1 -10 41 l0 57 -40 0 c-33 0 -40 3 -40 19 0 39 -18 30 -30 -14 -9 -31
-16 -42 -24 -37 -6 5 -25 12 -42 15 -22 4 -33 1 -41 -13 -16 -25 -4 -33 24
-15 19 13 26 13 43 3 11 -7 20 -16 20 -20 0 -21 39 -5 49 20 12 29 55 42 64
19 5 -14 6 -179 0 -174 -2 2 -9 24 -16 48 l-13 44 -27 -58 c-24 -51 -69 -106
-89 -107 -4 0 -10 9 -13 20 -4 11 -16 20 -28 21 -15 1 -12 3 10 9 69 16 100
54 91 111 -2 19 -10 24 -33 25 -35 2 -70 10 -86 20 -7 4 -21 8 -33 8 -22 2
-23 6 -12 42 4 14 -1 27 -19 44 -14 13 -25 19 -25 13 0 -5 9 -18 19 -27 11
-10 17 -25 14 -37 -5 -18 -8 -18 -28 -5 -19 13 -22 12 -22 -1 0 -21 43 -46 67
-40 11 3 20 1 20 -4 0 -5 7 -9 16 -9 9 0 12 -5 8 -12 -4 -7 -3 -8 4 -4 17 10
72 -34 72 -58 0 -25 -16 -53 -25 -44 -4 3 -22 0 -40 -8 -39 -16 -46 -17 -43
-6 3 11 -33 126 -43 137 -6 5 -9 1 -9 -10 0 -15 -2 -17 -9 -7 -6 10 -12 0 -20
-31 -10 -41 -57 -97 -80 -97 -4 0 -18 35 -30 78 -42 147 -36 142 -166 142 -57
0 -87 5 -103 16 -40 28 -22 74 30 74 17 0 28 5 28 14 0 17 23 27 39 16 8 -4
10 -16 7 -28 -5 -15 -1 -24 14 -32 12 -6 22 -10 23 -8 15 30 28 43 41 42 12
-1 15 6 13 30 -2 29 0 31 38 37 22 3 43 7 48 8 4 0 11 -9 16 -21z m-331 -24
c4 -27 -21 -47 -48 -39 -20 6 -28 44 -13 59 15 15 58 1 61 -20z m506 1 c4 -11
-1 -15 -18 -15 -13 0 -35 -9 -49 -20 l-25 -20 -5 26 c-3 19 1 28 17 34 34 14
73 11 80 -5z m443 -142 c-9 -8 -48 8 -42 18 4 5 14 5 26 -2 12 -6 18 -13 16
-16z m-319 -108 c-1 -19 -6 -35 -11 -35 -5 0 -7 11 -5 25 3 14 1 25 -4 25 -5
0 -6 5 -3 10 13 21 26 8 23 -25z m-178 0 c0 -8 -7 -15 -15 -15 -13 0 -14 3 -3
15 16 18 18 18 18 0z m318 -39 c15 5 15 4 0 -6 -22 -13 -23 -53 -3 -70 22 -18
34 -3 31 39 -3 33 0 38 16 33 20 -5 18 -28 -8 -69 -13 -21 -12 -22 24 -26 20
-2 1 -3 -43 -4 -44 0 -72 2 -62 4 14 4 17 17 18 71 1 37 4 57 6 45 3 -15 9
-20 21 -17z m-312 -32 c-10 -14 -20 -23 -23 -21 -6 6 30 57 36 51 2 -2 -4 -15
-13 -30z"/>
<path d="M1082 1128 c-6 -8 -25 -14 -42 -13 -32 2 -35 -6 -20 -55 l7 -25 7 30
c4 17 9 34 10 40 1 5 14 -9 29 -30 22 -33 27 -36 27 -18 0 12 -5 25 -10 28 -8
5 -7 11 0 21 7 7 10 18 8 25 -3 8 -8 7 -16 -3z"/>
<path d="M725 1070 c-3 -5 -1 -10 4 -10 6 0 11 5 11 10 0 6 -2 10 -4 10 -3 0
-8 -4 -11 -10z"/>
<path d="M1244 1018 c-2 -4 -3 -20 -2 -35 1 -22 7 -29 25 -31 14 -1 23 3 22
11 -6 46 0 55 34 48 35 -8 39 -26 19 -87 -9 -30 -8 -32 14 -30 14 0 27 9 30
19 8 25 -5 94 -20 106 -14 12 -115 11 -122 -1z"/>
<path d="M1044 974 c-18 -14 -18 -15 4 -4 12 6 22 13 22 15 0 8 -5 6 -26 -11z"/>
</g>
</svg>
